<?xml version="1.0" standalone="no"?>
<!DOCTYPE svg PUBLIC "-//W3C//DTD SVG 20010904//EN"
 "http://www.w3.org/TR/2001/REC-SVG-20010904/DTD/svg10.dtd">
<svg version="1.0" xmlns="http://www.w3.org/2000/svg"
 width="560.000000pt" height="401.000000pt" viewBox="0 0 560.000000 401.000000"
 preserveAspectRatio="xMidYMid meet">

<g transform="translate(0.000000,401.000000) scale(0.100000,-0.100000)"
fill="#000000" stroke="none">
<path d="M1639 3923 c-118 -120 -256 -341 -315 -503 -22 -63 -49 -133 -58
-155 -12 -26 -19 -71 -20 -125 -1 -47 -9 -104 -16 -127 -12 -37 -12 -54 3
-131 9 -49 17 -133 17 -186 0 -92 20 -211 51 -304 14 -42 8 -48 -25 -27 -14 9
-41 17 -60 18 -48 1 -82 -33 -104 -103 -23 -75 -22 -273 2 -395 21 -109 82
-293 132 -401 20 -43 54 -119 75 -168 44 -101 78 -150 119 -171 37 -19 89 -19
110 0 16 15 18 11 25 -62 23 -261 61 -426 120 -527 25 -43 25 -44 25 -299 0
-162 4 -257 10 -257 6 0 11 91 12 239 l3 239 55 -67 c31 -36 100 -104 155
-149 118 -99 360 -262 388 -262 12 0 -15 22 -64 51 -299 182 -498 369 -588
554 -49 101 -66 171 -86 360 -27 252 -54 439 -76 522 -11 43 -31 119 -44 168
-12 50 -26 138 -30 197 -4 59 -11 106 -15 103 -20 -13 10 -246 51 -388 52
-181 78 -382 52 -407 -18 -19 -83 -14 -112 8 -29 21 -62 83 -150 278 -127 282
-166 434 -166 659 0 140 2 153 25 200 31 62 63 77 114 53 41 -20 86 -76 96
-121 7 -29 8 -30 9 -6 1 15 -6 43 -14 62 -20 49 -19 87 4 111 19 20 85 156 76
156 -3 0 -20 -33 -40 -74 -33 -71 -59 -105 -71 -93 -3 3 -8 25 -11 49 -3 24
-11 62 -19 86 -20 60 -17 126 6 172 27 53 100 144 169 208 l56 54 -58 -48
c-58 -48 -141 -144 -170 -199 l-16 -30 -1 50 c0 28 -9 92 -19 143 l-18 93 28
39 c25 35 73 78 149 133 24 17 24 17 -9 0 -19 -10 -64 -45 -99 -78 l-66 -60
29 53 c16 30 51 74 78 98 27 24 46 44 42 44 -3 0 -31 -23 -61 -51 l-54 -52 0
34 c0 19 -3 44 -6 55 -6 23 -7 22 179 132 39 23 68 42 64 42 -12 0 -88 -40
-132 -70 -22 -15 -55 -35 -72 -44 l-33 -16 21 52 c12 29 34 91 50 137 16 46
34 90 41 98 16 20 114 68 168 84 25 6 90 15 145 19 l100 7 -80 1 c-90 2 -176
-15 -259 -52 -68 -30 -70 -38 41 136 67 105 79 119 111 127 114 30 240 21 340
-24 28 -13 52 -22 52 -19 0 3 -24 16 -52 29 -95 43 -226 54 -336 29 -23 -5
-14 7 53 75 44 44 75 81 70 81 -6 0 -49 -39 -96 -87z"/>
<path d="M2032 3986 c77 -33 135 -74 198 -143 29 -32 47 -47 40 -33 -26 49
-123 132 -194 166 -39 19 -77 34 -86 34 -8 -1 11 -11 42 -24z"/>
<path d="M2521 4005 c1 -19 18 -51 18 -35 0 8 -4 22 -9 30 -5 8 -9 11 -9 5z"/>
<path d="M2752 3980 c0 -19 2 -27 5 -17 2 9 2 25 0 35 -3 9 -5 1 -5 -18z"/>
<path d="M2917 3987 c-4 -16 -5 -54 -1 -85 5 -52 -7 -182 -22 -228 -5 -15 -4
-16 5 -4 18 26 32 142 29 245 -2 70 -5 92 -11 72z"/>
<path d="M2972 3990 c0 -14 2 -19 5 -12 2 6 2 18 0 25 -3 6 -5 1 -5 -13z"/>
<path d="M3151 3948 c-11 -35 -27 -93 -35 -131 -9 -37 -25 -85 -36 -107 -11
-22 -18 -40 -15 -40 13 0 47 87 69 178 14 56 32 115 41 132 8 16 11 30 6 30
-5 0 -19 -28 -30 -62z"/>
<path d="M3833 3977 l37 -32 -62 2 -63 1 68 -8 c69 -9 108 -31 167 -95 l25
-28 -25 7 c-14 3 -65 8 -115 10 l-90 5 92 -10 c150 -15 148 -14 256 -175 64
-95 102 -163 117 -210 12 -38 36 -98 52 -134 17 -36 31 -69 32 -75 2 -5 6 -17
9 -25 10 -27 14 -70 7 -70 -5 0 -32 16 -61 35 -66 45 -81 53 -49 26 14 -12 43
-33 66 -46 l41 -25 8 -143 c11 -169 9 -271 -3 -312 -9 -27 -10 -28 -17 -10
-26 72 -73 152 -117 197 l-50 53 46 -54 c60 -70 108 -171 114 -240 4 -46 -3
-111 -24 -218 -2 -12 -13 -27 -25 -33 -26 -15 -62 8 -91 56 -11 19 -23 33 -25
30 -10 -10 53 -86 80 -97 15 -6 27 -13 27 -14 0 -1 -6 -18 -14 -36 -14 -34
-12 -59 5 -59 4 0 6 6 3 13 -6 17 58 81 98 98 47 19 79 3 108 -56 23 -47 25
-60 25 -200 0 -225 -39 -377 -166 -659 -88 -195 -121 -257 -150 -278 -29 -22
-94 -27 -112 -8 -25 24 0 228 49 395 34 119 54 224 54 293 1 32 5 76 9 100 7
34 6 40 -5 32 -9 -8 -15 -6 -23 7 -6 10 -11 13 -11 6 0 -6 5 -15 11 -19 17
-10 0 -215 -26 -319 -13 -49 -33 -125 -44 -168 -22 -83 -49 -270 -76 -522 -24
-224 -52 -318 -127 -436 -101 -156 -291 -323 -547 -478 -49 -29 -76 -51 -64
-51 28 0 270 163 388 262 55 45 124 113 155 149 l55 67 3 -239 c1 -148 6 -239
12 -239 6 0 10 95 10 257 0 255 0 256 25 299 59 101 97 266 120 527 7 73 9 77
25 62 21 -19 73 -19 110 0 41 21 75 70 119 171 21 49 55 125 75 168 50 108
111 292 132 401 24 122 25 320 2 395 -31 101 -94 129 -175 79 l-38 -24 18 28
c10 15 19 44 22 65 2 20 9 64 15 97 41 210 40 206 34 425 -4 118 -7 226 -8
240 -1 14 -17 59 -37 100 -20 41 -48 111 -63 156 -19 58 -51 117 -116 215 -49
74 -101 147 -117 163 -64 65 -204 186 -215 186 -7 -1 4 -15 25 -33z"/>
<path d="M2684 3900 c0 -58 1 -81 3 -52 2 28 2 76 0 105 -2 28 -3 5 -3 -53z"/>
<path d="M2215 3960 c10 -11 20 -20 23 -20 3 0 -3 9 -13 20 -10 11 -20 20 -23
20 -3 0 3 -9 13 -20z"/>
<path d="M2541 3934 c0 -11 3 -14 6 -6 3 7 2 16 -1 19 -3 4 -6 -2 -5 -13z"/>
<path d="M2447 3863 c41 -131 54 -162 74 -185 14 -17 13 -12 -5 22 -14 25 -32
72 -40 106 -16 61 -43 134 -50 134 -2 0 7 -35 21 -77z"/>
<path d="M3370 3904 c-36 -33 -90 -126 -90 -156 0 -7 13 15 29 49 16 34 48 80
70 102 51 51 45 54 -9 5z"/>
<path d="M3708 3933 c6 -2 18 -2 25 0 6 3 1 5 -13 5 -14 0 -19 -2 -12 -5z"/>
<path d="M3062 3835 c-8 -44 -24 -104 -37 -132 -28 -62 -24 -71 5 -13 24 48
52 163 48 199 -2 14 -9 -10 -16 -54z"/>
<path d="M3658 3871 c-73 -24 -113 -49 -168 -108 l-45 -47 53 48 c81 73 166
108 282 116 l95 7 -80 1 c-52 1 -100 -5 -137 -17z"/>
<path d="M3728 3823 c7 -3 16 -2 19 1 4 3 -2 6 -13 5 -11 0 -14 -3 -6 -6z"/>
<path d="M2565 3781 c3 -25 15 -63 26 -85 10 -23 16 -32 13 -21 -4 11 -16 49
-26 85 -16 55 -18 58 -13 21z"/>
<path d="M2010 3788 c0 -2 21 -21 48 -43 26 -21 38 -28 27 -16 -19 23 -75 66
-75 59z"/>
<path d="M2278 3683 c7 -3 16 -2 19 1 4 3 -2 6 -13 5 -11 0 -14 -3 -6 -6z"/>
<path d="M2385 3675 c28 -7 59 -13 70 -13 11 0 -2 6 -30 13 -27 7 -59 13 -70
13 -11 0 3 -6 30 -13z"/>
<path d="M3228 3683 c6 -2 18 -2 25 0 6 3 1 5 -13 5 -14 0 -19 -2 -12 -5z"/>
<path d="M3308 3683 c7 -3 16 -2 19 1 4 3 -2 6 -13 5 -11 0 -14 -3 -6 -6z"/>
<path d="M2238 3673 c7 -3 16 -2 19 1 4 3 -2 6 -13 5 -11 0 -14 -3 -6 -6z"/>
<path d="M3145 3670 c-27 -7 -27 -8 -5 -8 14 0 36 4 50 8 20 6 21 8 5 8 -11 0
-33 -4 -50 -8z"/>
<path d="M3376 3666 c51 -16 155 -69 213 -109 65 -44 180 -161 228 -232 23
-34 49 -67 59 -75 10 -8 5 3 -12 25 -16 22 -42 59 -57 83 -16 24 -44 60 -63
82 -19 21 -31 40 -27 43 21 11 77 20 168 27 l100 7 -85 1 c-50 1 -110 -4 -144
-13 -54 -14 -60 -14 -78 2 -23 21 -16 27 58 59 32 14 46 22 30 19 -16 -3 -48
-15 -70 -26 -22 -10 -43 -19 -46 -19 -4 0 -37 20 -74 44 -66 44 -191 97 -224
95 -9 0 1 -6 24 -13z"/>
<path d="M2114 3631 c-43 -21 -100 -54 -126 -74 l-46 -36 -54 15 c-29 7 -71
13 -93 12 -32 -1 -34 -2 -10 -5 17 -2 56 -8 87 -14 l58 -12 -51 -55 c-28 -30
-69 -83 -91 -116 -23 -34 -57 -81 -77 -106 -20 -26 -25 -37 -12 -25 13 11 44
49 69 85 114 161 209 246 360 322 53 26 89 48 81 48 -8 0 -51 -17 -95 -39z"/>
<path d="M2488 3653 c7 -3 16 -2 19 1 4 3 -2 6 -13 5 -11 0 -14 -3 -6 -6z"/>
<path d="M2605 3623 c72 -23 331 -23 395 0 27 10 33 14 16 11 -133 -25 -259
-25 -426 1 -27 4 -24 1 15 -12z"/>
<path d="M3813 3593 c9 -2 23 -2 30 0 6 3 -1 5 -18 5 -16 0 -22 -2 -12 -5z"/>
<path d="M1668 3543 c6 -2 18 -2 25 0 6 3 1 5 -13 5 -14 0 -19 -2 -12 -5z"/>
<path d="M4008 3503 c6 -2 18 -2 25 0 6 3 1 5 -13 5 -14 0 -19 -2 -12 -5z"/>
<path d="M4058 3493 c7 -3 16 -2 19 1 4 3 -2 6 -13 5 -11 0 -14 -3 -6 -6z"/>
<path d="M3978 3423 c7 -3 16 -2 19 1 4 3 -2 6 -13 5 -11 0 -14 -3 -6 -6z"/>
<path d="M4018 3413 c7 -3 16 -2 19 1 4 3 -2 6 -13 5 -11 0 -14 -3 -6 -6z"/>
<path d="M4111 3374 c36 -19 96 -60 133 -91 37 -30 69 -54 71 -52 14 14 -226
179 -260 178 -5 0 20 -15 56 -35z"/>
<path d="M1960 3380 c-6 -11 -8 -20 -6 -20 3 0 10 9 16 20 6 11 8 20 6 20 -3
0 -10 -9 -16 -20z"/>
<path d="M3630 3380 c6 -11 13 -20 16 -20 2 0 0 9 -6 20 -6 11 -13 20 -16 20
-2 0 0 -9 6 -20z"/>
<path d="M1648 3383 c7 -3 16 -2 19 1 4 3 -2 6 -13 5 -11 0 -14 -3 -6 -6z"/>
<path d="M1568 3373 c7 -3 16 -2 19 1 4 3 -2 6 -13 5 -11 0 -14 -3 -6 -6z"/>
<path d="M1936 3335 c-9 -26 -7 -32 5 -12 6 10 9 21 6 23 -2 3 -7 -2 -11 -11z"/>
<path d="M3650 3345 c0 -5 5 -17 10 -25 5 -8 10 -10 10 -5 0 6 -5 17 -10 25
-5 8 -10 11 -10 5z"/>
<path d="M1405 3210 c-3 -6 1 -7 9 -4 18 7 21 14 7 14 -6 0 -13 -4 -16 -10z"/>
<path d="M1695 3168 c-29 -30 -29 -30 -3 -14 14 10 29 24 32 32 7 19 5 18 -29
-18z"/>
<path d="M3900 3166 c0 -3 14 -12 30 -21 17 -9 30 -13 30 -11 0 3 -13 12 -30
21 -16 9 -30 13 -30 11z"/>
<path d="M1872 3120 c0 -14 2 -19 5 -12 2 6 2 18 0 25 -3 6 -5 1 -5 -13z"/>
<path d="M3722 3120 c0 -14 2 -19 5 -12 2 6 2 18 0 25 -3 6 -5 1 -5 -13z"/>
<path d="M4125 3092 c39 -20 98 -64 133 -97 34 -34 62 -59 62 -57 0 2 -14 21
-31 42 -36 44 -125 110 -183 134 -63 26 -56 18 19 -22z"/>
<path d="M3965 3087 c48 -16 119 -52 160 -80 l30 -21 -19 22 c-25 28 -130 80
-176 87 -35 5 -35 5 5 -8z"/>
<path d="M1863 3045 c0 -27 2 -38 4 -22 2 15 2 37 0 50 -2 12 -4 0 -4 -28z"/>
<path d="M3733 3045 c0 -27 2 -38 4 -22 2 15 2 37 0 50 -2 12 -4 0 -4 -28z"/>
<path d="M1462 3025 c-38 -22 -120 -82 -147 -109 -15 -15 43 22 106 68 31 23
65 46 75 53 35 22 10 13 -34 -12z"/>
<path d="M1640 2999 c-83 -54 -149 -110 -191 -162 -24 -30 -11 -21 47 33 44
41 107 93 140 115 66 44 81 55 73 55 -3 0 -34 -18 -69 -41z"/>
<path d="M3906 3009 c3 -5 37 -25 75 -44 92 -45 121 -66 198 -139 54 -52 60
-55 33 -20 -47 62 -114 112 -218 165 -52 25 -91 43 -88 38z"/>
<path d="M1529 2973 c-13 -16 -12 -17 4 -4 9 7 17 15 17 17 0 8 -8 3 -21 -13z"/>
<path d="M1669 2963 c-13 -16 -12 -17 4 -4 9 7 17 15 17 17 0 8 -8 3 -21 -13z"/>
<path d="M3905 2952 c11 -13 29 -28 40 -34 21 -11 18 -8 -30 32 -29 24 -29 24
-10 2z"/>
<path d="M1704 2949 c-3 -6 -20 -19 -38 -30 -17 -10 -25 -19 -19 -19 13 0 83
59 71 60 -4 0 -10 -5 -14 -11z"/>
<path d="M4120 2936 c0 -2 8 -10 18 -17 15 -13 16 -12 3 4 -13 16 -21 21 -21
13z"/>
<path d="M3900 2896 c0 -2 8 -10 18 -17 15 -13 16 -12 3 4 -13 16 -21 21 -21
13z"/>
<path d="M1679 2863 l-24 -28 28 24 c25 23 32 31 24 31 -2 0 -14 -12 -28 -27z"/>
<path d="M1863 2850 c0 -25 2 -35 4 -22 2 12 2 32 0 45 -2 12 -4 2 -4 -23z"/>
<path d="M3733 2850 c0 -25 2 -35 4 -22 2 12 2 32 0 45 -2 12 -4 2 -4 -23z"/>
<path d="M3920 2835 c13 -14 26 -25 28 -25 3 0 -5 11 -18 25 -13 14 -26 25
-28 25 -3 0 5 -11 18 -25z"/>
<path d="M1595 2808 c-85 -51 -129 -93 -185 -175 -29 -43 -65 -91 -79 -108
l-26 -30 29 25 c15 14 50 57 76 95 57 83 105 130 183 179 31 20 57 39 57 41 0
7 1 7 -55 -27z"/>
<path d="M1593 2686 c-102 -102 -127 -134 -157 -196 -20 -41 -36 -81 -36 -90
1 -8 12 11 25 42 35 86 95 164 190 251 47 43 90 87 95 98 6 10 9 18 8 18 -2
-1 -58 -56 -125 -123z"/>
<path d="M3960 2807 c0 -2 27 -21 59 -41 71 -43 138 -117 181 -198 17 -31 35
-60 41 -64 15 -9 -48 103 -89 157 -36 48 -103 104 -159 133 -18 9 -33 15 -33
13z"/>
<path d="M1872 2770 c0 -14 2 -19 5 -12 2 6 2 18 0 25 -3 6 -5 1 -5 -13z"/>
<path d="M3722 2770 c0 -14 2 -19 5 -12 2 6 2 18 0 25 -3 6 -5 1 -5 -13z"/>
<path d="M3953 2740 c87 -79 172 -164 191 -190 17 -24 17 -24 0 5 -33 59 -66
96 -122 137 -31 23 -71 53 -88 67 -16 14 -8 6 19 -19z"/>
<path d="M1701 2704 c-12 -19 -16 -32 -11 -29 11 7 43 65 36 65 -2 0 -13 -16
-25 -36z"/>
<path d="M1881 2714 c0 -11 3 -14 6 -6 3 7 2 16 -1 19 -3 4 -6 -2 -5 -13z"/>
<path d="M3711 2714 c0 -11 3 -14 6 -6 3 7 2 16 -1 19 -3 4 -6 -2 -5 -13z"/>
<path d="M3905 2710 c10 -11 20 -20 23 -20 3 0 -3 9 -13 20 -10 11 -20 20 -23
20 -3 0 3 -9 13 -20z"/>
<path d="M1704 2638 l-19 -23 23 19 c21 18 27 26 19 26 -2 0 -12 -10 -23 -22z"/>
<path d="M3890 2641 c5 -11 15 -23 21 -27 6 -3 3 5 -6 20 -20 30 -30 35 -15 7z"/>
<path d="M1901 2634 c0 -11 3 -14 6 -6 3 7 2 16 -1 19 -3 4 -6 -2 -5 -13z"/>
<path d="M3691 2634 c0 -11 3 -14 6 -6 3 7 2 16 -1 19 -3 4 -6 -2 -5 -13z"/>
<path d="M1720 2591 c0 -5 -23 -36 -50 -70 -76 -90 -114 -159 -146 -267 -21
-70 -37 -106 -59 -128 l-30 -31 28 18 c26 17 27 17 27 0 1 -10 12 25 25 77 31
119 88 235 160 323 50 62 64 87 50 87 -3 0 -5 -4 -5 -9z"/>
<path d="M3870 2591 c0 -6 4 -13 10 -16 6 -3 7 1 4 9 -7 18 -14 21 -14 7z"/>
<path d="M4100 2550 c6 -11 13 -20 16 -20 2 0 0 9 -6 20 -6 11 -13 20 -16 20
-2 0 0 -9 6 -20z"/>
<path d="M3938 2500 c62 -82 109 -173 138 -270 13 -41 23 -66 24 -55 0 17 3
15 18 -10 22 -36 50 -60 59 -51 3 3 1 6 -6 6 -6 0 -24 20 -40 45 -15 24 -32
41 -36 37 -5 -4 -6 0 -2 9 3 9 2 20 -3 25 -4 5 -13 27 -20 49 -22 72 -80 171
-131 226 l-51 54 50 -65z"/>
<path d="M1549 2523 l-24 -28 28 24 c25 23 32 31 24 31 -2 0 -14 -12 -28 -27z"/>
<path d="M1480 2419 c-12 -23 -20 -43 -18 -45 3 -2 14 17 26 41 27 56 20 60
-8 4z"/>
<path d="M4131 2353 c22 -45 50 -90 62 -100 22 -18 22 -18 6 2 -9 11 -30 47
-47 80 -17 33 -37 69 -46 80 -9 11 2 -17 25 -62z"/>
<path d="M1952 2389 c-67 -13 -141 -58 -217 -133 l-70 -68 71 64 c39 35 96 77
125 93 51 28 60 30 169 30 106 0 127 -3 263 -43 82 -24 150 -42 153 -40 6 7
-284 88 -351 98 -68 11 -83 11 -143 -1z"/>
<path d="M3495 2390 c-62 -11 -346 -92 -341 -98 3 -2 71 16 153 40 136 40 157
43 263 43 109 0 118 -2 169 -30 29 -16 86 -58 125 -93 l71 -64 -71 69 c-116
115 -233 157 -369 133z"/>
<path d="M1391 2364 c0 -11 3 -14 6 -6 3 7 2 16 -1 19 -3 4 -6 -2 -5 -13z"/>
<path d="M1476 2315 c-9 -26 -7 -32 5 -12 6 10 9 21 6 23 -2 3 -7 -2 -11 -11z"/>
<path d="M1456 2254 c-4 -14 -5 -28 -3 -31 3 -2 8 8 11 23 4 14 5 28 3 31 -3
2 -8 -8 -11 -23z"/>
<path d="M1910 2264 c-54 -14 -200 -78 -200 -88 0 -3 33 10 73 29 40 18 94 39
121 46 77 19 186 6 301 -36 241 -89 319 -108 352 -87 6 4 -17 7 -50 8 -51 0
-89 11 -218 62 -138 54 -245 83 -304 81 -11 0 -45 -7 -75 -15z"/>
<path d="M2491 2277 c2 -2 18 -11 34 -21 l30 -17 -24 20 c-13 12 -28 21 -34
21 -6 0 -8 -1 -6 -3z"/>
<path d="M3069 2259 l-24 -20 30 17 c39 24 40 24 28 24 -6 0 -21 -9 -34 -21z"/>
<path d="M3522 2269 c-29 -5 -124 -37 -210 -71 -130 -51 -168 -62 -219 -62
-33 -1 -56 -4 -50 -8 33 -21 112 -2 352 87 171 63 288 59 437 -16 32 -16 58
-27 58 -24 0 11 -145 74 -205 90 -65 16 -84 17 -163 4z"/>
<path d="M1190 2249 c-6 -11 -9 -25 -6 -32 2 -7 5 -5 5 4 1 9 8 22 17 29 12
11 18 11 29 -1 13 -13 13 -31 1 -144 -8 -72 -22 -165 -32 -209 -12 -58 -14
-92 -8 -130 9 -49 9 -48 10 34 1 47 8 112 17 146 9 33 20 101 23 150 9 123 14
128 58 56 20 -33 36 -63 36 -67 0 -4 -8 -23 -17 -43 l-18 -37 -6 70 -5 70 -2
-79 -2 -79 25 23 c14 13 25 29 25 37 0 7 5 13 10 13 6 0 10 -2 10 -4 0 -2 7
-20 15 -40 l15 -36 -47 -53 -47 -52 47 45 47 44 0 -44 c0 -25 -8 -67 -17 -93
-20 -54 -24 -39 51 -161 39 -65 50 -119 19 -95 -14 11 -14 9 1 -9 11 -13 23
-19 28 -14 13 13 -13 81 -62 161 l-42 70 23 66 c21 63 21 67 6 131 -26 104
-144 294 -182 294 -8 0 -19 -9 -25 -21z"/>
<path d="M4101 2264 c-1 -13 42 -71 66 -89 32 -25 32 -16 -1 18 -17 17 -39 43
-48 57 -9 14 -17 20 -17 14z"/>
<path d="M4338 2231 c-54 -63 -116 -181 -134 -254 -16 -65 -16 -68 5 -132 l23
-66 -42 -70 c-49 -80 -75 -148 -62 -161 5 -5 17 1 28 14 15 18 15 20 2 9 -32
-24 -21 30 18 95 75 122 71 107 51 161 -9 26 -17 68 -17 93 l0 44 47 -44 47
-45 -47 52 -47 53 15 36 c8 20 15 38 15 40 0 2 5 4 10 4 6 0 10 -6 10 -13 0
-8 11 -24 25 -37 l25 -23 -2 79 -2 79 -5 -70 -6 -70 -17 37 c-10 20 -18 39
-18 43 0 4 16 34 36 67 44 72 49 67 58 -56 3 -49 14 -117 23 -150 9 -34 16
-99 17 -146 1 -82 1 -83 10 -34 6 38 4 72 -8 130 -10 44 -24 137 -32 209 -12
113 -12 131 1 144 11 12 17 12 29 1 9 -7 16 -20 17 -29 0 -9 3 -11 5 -4 7 17
-14 53 -31 53 -7 0 -29 -18 -47 -39z"/>
<path d="M4229 2231 c9 -6 10 -11 2 -15 -6 -4 -11 -17 -11 -29 0 -20 2 -19 15
7 15 29 12 46 -8 46 -8 0 -8 -3 2 -9z"/>
<path d="M1376 2209 c-16 -16 -17 -19 -4 -19 9 0 19 7 22 16 9 24 4 24 -18 3z"/>
<path d="M1415 2172 c-31 -36 -42 -66 -22 -59 7 2 14 12 15 23 2 10 13 29 25
41 11 13 19 24 16 26 -2 2 -17 -12 -34 -31z"/>
<path d="M1172 2175 c0 -16 2 -22 5 -12 2 9 2 23 0 30 -3 6 -5 -1 -5 -18z"/>
<path d="M4422 2175 c0 -16 2 -22 5 -12 2 9 2 23 0 30 -3 6 -5 -1 -5 -18z"/>
<path d="M4102 2135 c1 -38 13 -81 19 -65 3 8 0 31 -7 50 -7 19 -13 26 -12 15z"/>
<path d="M4207 2143 c-4 -3 -7 -13 -7 -22 1 -13 3 -13 11 2 11 19 8 33 -4 20z"/>
<path d="M2195 2130 c121 -13 201 -49 258 -114 12 -13 17 -15 14 -6 -6 23 -96
88 -147 106 -25 8 -81 17 -125 19 l-80 4 80 -9z"/>
<path d="M3310 2124 c-74 -20 -180 -90 -180 -118 0 -6 8 -2 18 10 53 64 137
101 257 113 78 8 79 8 20 9 -33 0 -85 -6 -115 -14z"/>
<path d="M2017 2110 c-42 -16 -105 -59 -180 -123 -39 -33 6 -4 71 45 78 59 88
65 154 82 30 8 42 15 28 15 -14 0 -47 -8 -73 -19z"/>
<path d="M3538 2114 c66 -17 76 -23 154 -82 65 -49 110 -78 71 -45 -111 94
-200 144 -256 142 -12 0 2 -7 31 -15z"/>
<path d="M1631 2092 c-1 -32 33 -96 63 -115 38 -25 41 -20 7 9 -35 29 -51 55
-62 99 -6 24 -7 26 -8 7z"/>
<path d="M3962 2090 c0 -14 2 -19 5 -12 2 6 2 18 0 25 -3 6 -5 1 -5 -13z"/>
<path d="M1394 2085 c7 -6 16 -19 18 -30 3 -15 5 -13 9 10 4 26 2 30 -18 30
-18 0 -20 -2 -9 -10z"/>
<path d="M4180 2060 c0 -16 2 -30 4 -30 2 0 6 14 8 30 3 17 1 30 -4 30 -4 0
-8 -13 -8 -30z"/>
<path d="M1446 2052 l-19 -27 24 22 c12 12 21 24 18 27 -2 2 -13 -8 -23 -22z"/>
<path d="M2050 2061 c-43 -16 -163 -91 -147 -91 4 0 38 16 75 35 l67 34 5 -47
c3 -26 12 -58 19 -71 13 -23 12 -24 -15 -18 -16 3 -38 8 -49 11 -11 4 -4 -1
15 -11 27 -13 68 -17 180 -19 80 -1 130 0 113 3 l-33 4 17 26 c10 15 20 46 23
70 l5 44 60 -41 60 -42 -56 54 c-34 33 -71 58 -96 66 -60 18 -189 14 -243 -7z
m78 -36 c-14 -32 2 -71 36 -87 20 -9 30 -8 51 6 34 22 41 42 28 77 -10 27 -9
29 12 29 64 0 73 -82 15 -140 -16 -16 -33 -20 -85 -20 -58 0 -69 3 -90 26 -50
54 -41 134 15 134 28 0 29 -1 18 -25z m90 3 c7 -7 12 -21 12 -33 0 -12 -5 -26
-12 -33 -7 -7 -21 -12 -33 -12 -12 0 -26 5 -33 12 -7 7 -12 21 -12 33 0 12 5
26 12 33 7 7 21 12 33 12 12 0 26 -5 33 -12z"/>
<path d="M3301 2068 c-19 -7 -59 -36 -90 -66 l-56 -54 60 42 60 41 5 -44 c3
-24 13 -55 23 -70 l17 -26 -33 -4 c-17 -3 33 -4 113 -3 112 2 153 6 180 19 19
10 26 15 15 11 -11 -3 -33 -8 -49 -11 -27 -6 -28 -5 -15 18 7 13 16 45 19 71
l5 47 70 -35 c62 -31 67 -32 40 -9 -16 14 -55 38 -85 53 -47 23 -69 27 -150
29 -52 1 -110 -3 -129 -9z m56 -47 c-13 -35 -6 -55 28 -77 21 -14 31 -15 51
-6 34 16 50 55 36 87 -11 24 -10 25 18 25 56 0 65 -80 15 -134 -21 -23 -32
-26 -90 -26 -52 0 -69 4 -85 20 -58 58 -49 140 15 140 21 0 22 -2 12 -29z m91
7 c28 -28 7 -78 -33 -78 -27 0 -45 18 -45 45 0 27 18 45 45 45 12 0 26 -5 33
-12z"/>
<path d="M4140 2050 c6 -11 13 -20 16 -20 2 0 0 9 -6 20 -6 11 -13 20 -16 20
-2 0 0 -9 6 -20z"/>
<path d="M3950 2052 c0 -6 -15 -28 -32 -48 -27 -30 -29 -35 -11 -25 24 12 59
69 49 79 -3 3 -6 0 -6 -6z"/>
<path d="M2652 2018 c6 -13 15 -57 18 -98 l7 -75 1 63 c2 56 -17 132 -33 132
-3 0 0 -10 7 -22z"/>
<path d="M2934 2005 c-8 -19 -13 -61 -12 -97 l1 -63 7 75 c3 41 12 85 18 98 7
12 10 22 7 22 -3 0 -13 -16 -21 -35z"/>
<path d="M1428 1993 c5 -21 7 -23 10 -9 2 10 0 22 -6 28 -6 6 -7 0 -4 -19z"/>
<path d="M1461 1987 c-13 -21 -12 -21 5 -5 10 10 16 20 13 22 -3 3 -11 -5 -18
-17z"/>
<path d="M2538 1950 c12 -12 22 -33 22 -48 0 -37 -40 -120 -81 -168 l-33 -39
32 30 c37 34 92 137 92 172 0 32 -15 59 -37 67 -14 6 -13 2 5 -14z"/>
<path d="M3050 1950 c-11 -11 -20 -33 -20 -48 0 -40 53 -142 92 -177 l32 -30
-33 39 c-41 48 -81 131 -81 168 0 15 10 36 22 48 12 11 19 20 15 20 -4 0 -16
-9 -27 -20z"/>
<path d="M2464 1931 c19 -21 19 -21 -7 -21 -16 0 -27 6 -29 18 -3 14 -5 12
-10 -6 -6 -21 -4 -23 30 -20 42 4 52 22 20 39 -23 12 -23 12 -4 -10z"/>
<path d="M3125 1937 c-25 -19 -11 -37 30 -37 30 0 32 2 27 23 -5 18 -7 19 -10
5 -2 -12 -13 -18 -29 -18 -25 0 -26 0 -8 20 21 23 17 26 -10 7z"/>
<path d="M2971 1884 c0 -11 3 -14 6 -6 3 7 2 16 -1 19 -3 4 -6 -2 -5 -13z"/>
<path d="M2622 1870 c0 -14 2 -19 5 -12 2 6 2 18 0 25 -3 6 -5 1 -5 -13z"/>
<path d="M1285 1859 c-4 -6 -5 -12 -2 -15 2 -3 7 2 10 11 7 17 1 20 -8 4z"/>
<path d="M4306 1857 c3 -10 9 -15 12 -12 3 3 0 11 -7 18 -10 9 -11 8 -5 -6z"/>
<path d="M2982 1840 c0 -14 2 -19 5 -12 2 6 2 18 0 25 -3 6 -5 1 -5 -13z"/>
<path d="M2601 1784 c-7 -30 -11 -57 -8 -60 2 -2 9 21 16 52 7 30 11 57 8 60
-2 2 -9 -21 -16 -52z"/>
<path d="M1271 1814 c0 -11 3 -14 6 -6 3 7 2 16 -1 19 -3 4 -6 -2 -5 -13z"/>
<path d="M4321 1814 c0 -11 3 -14 6 -6 3 7 2 16 -1 19 -3 4 -6 -2 -5 -13z"/>
<path d="M2028 1813 c7 -3 16 -2 19 1 4 3 -2 6 -13 5 -11 0 -14 -3 -6 -6z"/>
<path d="M3558 1813 c7 -3 16 -2 19 1 4 3 -2 6 -13 5 -11 0 -14 -3 -6 -6z"/>
<path d="M2085 1799 c47 -14 157 -21 190 -11 24 7 16 9 -40 8 -38 -1 -95 2
-125 6 -41 5 -47 5 -25 -3z"/>
<path d="M2991 1810 c0 -3 8 -45 19 -95 14 -60 18 -73 15 -39 -4 42 -31 149
-34 134z"/>
<path d="M3268 1803 c7 -3 16 -2 19 1 4 3 -2 6 -13 5 -11 0 -14 -3 -6 -6z"/>
<path d="M3455 1799 c-27 -6 -75 -8 -105 -5 -46 4 -50 3 -25 -5 32 -11 141 -5
190 10 39 12 6 12 -60 0z"/>
<path d="M1271 1754 c0 -11 3 -14 6 -6 3 7 2 16 -1 19 -3 4 -6 -2 -5 -13z"/>
<path d="M4321 1754 c0 -11 3 -14 6 -6 3 7 2 16 -1 19 -3 4 -6 -2 -5 -13z"/>
<path d="M1210 1702 c0 -18 28 -70 59 -112 15 -19 47 -69 72 -110 24 -41 54
-86 67 -100 l23 -25 -19 30 c-52 79 -93 148 -89 151 2 2 28 -21 57 -51 30 -30
57 -55 61 -55 3 0 -36 42 -89 93 -62 60 -103 109 -118 142 -13 28 -24 44 -24
37z"/>
<path d="M2575 1655 c-4 -31 -5 -58 -3 -61 3 -2 8 21 12 52 4 31 5 59 2 61 -2
3 -8 -21 -11 -52z"/>
<path d="M4367 1666 c-12 -28 -51 -76 -116 -139 -54 -54 -95 -97 -92 -97 4 0
31 25 61 55 29 30 55 53 57 51 4 -3 -37 -72 -89 -151 l-19 -30 23 25 c13 14
43 59 67 100 25 41 57 91 72 110 33 43 61 98 57 111 -2 5 -11 -11 -21 -35z"/>
<path d="M1315 1661 c11 -13 40 -37 65 -53 44 -29 33 -18 -45 44 -27 21 -33
24 -20 9z"/>
<path d="M4264 1652 c-17 -15 -44 -37 -60 -50 -16 -13 -9 -10 16 6 39 26 91
73 79 72 -2 0 -18 -13 -35 -28z"/>
<path d="M1671 1598 c24 -45 53 -78 118 -134 l66 -57 -76 74 c-42 41 -84 89
-93 107 -9 17 -19 32 -22 32 -2 0 1 -10 7 -22z"/>
<path d="M3033 1580 c0 -25 2 -35 4 -22 2 12 2 32 0 45 -2 12 -4 2 -4 -23z"/>
<path d="M3914 1588 c-9 -18 -51 -66 -93 -107 l-76 -74 66 57 c36 31 75 69 86
84 25 34 45 72 39 72 -3 0 -13 -15 -22 -32z"/>
<path d="M2563 1510 c0 -41 2 -58 4 -37 2 20 2 54 0 75 -2 20 -4 3 -4 -38z"/>
<path d="M3043 1465 c0 -33 2 -45 4 -27 2 18 2 45 0 60 -2 15 -4 0 -4 -33z"/>
<path d="M2652 1415 c-17 -37 -14 -45 4 -12 9 16 14 31 11 33 -2 2 -9 -7 -15
-21z"/>
<path d="M2931 1435 c0 -5 6 -21 14 -35 8 -14 14 -20 14 -15 0 6 -6 21 -14 35
-8 14 -14 21 -14 15z"/>
<path d="M1920 1345 c35 -36 67 -65 69 -65 3 0 -24 29 -59 65 -35 36 -67 65
-69 65 -3 0 24 -29 59 -65z"/>
<path d="M3670 1343 l-65 -68 68 65 c62 60 72 70 64 70 -1 0 -32 -30 -67 -67z"/>
<path d="M2633 1330 c0 -25 2 -35 4 -22 2 12 2 32 0 45 -2 12 -4 2 -4 -23z"/>
<path d="M2963 1330 c0 -25 2 -35 4 -22 2 12 2 32 0 45 -2 12 -4 2 -4 -23z"/>
<path d="M2485 1328 c-24 -35 -37 -97 -30 -137 8 -44 39 -97 62 -106 14 -5 13
-2 -3 17 -34 37 -44 63 -44 120 0 34 7 67 20 91 22 41 20 49 -5 15z"/>
<path d="M3110 1315 c13 -25 20 -59 20 -93 0 -57 -10 -83 -44 -120 -16 -19
-17 -22 -3 -17 23 9 54 62 62 106 8 44 -8 109 -36 141 -20 23 -20 23 1 -17z"/>
<path d="M2640 1235 c0 -24 53 -84 75 -85 5 0 -1 7 -14 16 -12 9 -31 30 -42
48 -10 17 -19 26 -19 21z"/>
<path d="M2945 1221 c-3 -11 -20 -32 -36 -46 -30 -25 -29 -36 2 -12 21 16 53
66 46 73 -3 3 -8 -4 -12 -15z"/>
<path d="M2738 1143 c6 -2 18 -2 25 0 6 3 1 5 -13 5 -14 0 -19 -2 -12 -5z"/>
<path d="M2838 1143 c6 -2 18 -2 25 0 6 3 1 5 -13 5 -14 0 -19 -2 -12 -5z"/>
<path d="M2561 1131 c-12 -8 -12 -12 -2 -25 8 -9 21 -16 30 -15 10 0 7 4 -9
12 -24 11 -24 11 13 15 31 3 49 -4 90 -32 29 -20 59 -36 67 -36 8 1 2 8 -15
17 -16 8 -42 26 -56 40 -29 27 -95 40 -118 24z"/>
<path d="M2960 1133 c-8 -3 -26 -16 -40 -28 -14 -12 -38 -30 -55 -38 -16 -9
-23 -16 -15 -17 8 0 38 16 67 36 41 28 59 35 90 32 37 -4 37 -4 13 -15 -16 -8
-19 -12 -9 -12 9 -1 22 6 30 15 10 13 10 17 -2 25 -15 9 -55 11 -79 2z"/>
<path d="M2052 1090 c0 -14 2 -19 5 -12 2 6 2 18 0 25 -3 6 -5 1 -5 -13z"/>
<path d="M3542 1090 c0 -14 2 -19 5 -12 2 6 2 18 0 25 -3 6 -5 1 -5 -13z"/>
<path d="M2063 1010 c0 -25 2 -35 4 -22 2 12 2 32 0 45 -2 12 -4 2 -4 -23z"/>
<path d="M3533 1010 c0 -25 2 -35 4 -22 2 12 2 32 0 45 -2 12 -4 2 -4 -23z"/>
<path d="M2727 859 c7 -7 15 -10 18 -7 3 3 -2 9 -12 12 -14 6 -15 5 -6 -5z"/>
<path d="M2778 843 c12 -2 32 -2 45 0 12 2 2 4 -23 4 -25 0 -35 -2 -22 -4z"/>
<path d="M2617 799 c-49 -11 -190 -70 -183 -76 2 -2 35 9 73 25 98 44 182 57
229 37 20 -8 39 -14 41 -11 7 6 -77 36 -100 35 -12 -1 -39 -5 -60 -10z"/>
<path d="M2855 791 c-48 -23 -42 -27 9 -6 47 20 131 7 229 -37 38 -16 71 -27
73 -25 7 7 -134 64 -187 76 -61 14 -78 13 -124 -8z"/>
<path d="M2388 713 c6 -2 18 -2 25 0 6 3 1 5 -13 5 -14 0 -19 -2 -12 -5z"/>
<path d="M3188 713 c6 -2 18 -2 25 0 6 3 1 5 -13 5 -14 0 -19 -2 -12 -5z"/>
<path d="M2294 688 l-19 -23 25 20 c14 11 27 21 29 22 2 2 0 3 -6 3 -5 0 -18
-10 -29 -22z"/>
<path d="M3271 707 c2 -1 15 -11 29 -22 l25 -20 -19 23 c-11 12 -24 22 -29 22
-6 0 -8 -1 -6 -3z"/>
<path d="M2361 679 c39 -11 399 -9 364 2 -16 5 -110 8 -209 7 -98 -2 -168 -6
-155 -9z"/>
<path d="M2870 680 c-30 -10 333 -11 369 -1 13 3 -59 7 -160 8 -101 1 -195 -2
-209 -7z"/>
<path d="M2768 663 c7 -3 16 -2 19 1 4 3 -2 6 -13 5 -11 0 -14 -3 -6 -6z"/>
<path d="M2818 663 c7 -3 16 -2 19 1 4 3 -2 6 -13 5 -11 0 -14 -3 -6 -6z"/>
<path d="M2090 615 c0 -16 57 -107 87 -140 29 -32 22 -15 -9 20 -9 11 -31 45
-47 75 -17 30 -31 51 -31 45z"/>
<path d="M3489 589 c-7 -18 -28 -53 -47 -78 -54 -71 -58 -79 -19 -36 38 42 92
133 84 141 -2 3 -10 -10 -18 -27z"/>
<path d="M2480 569 c74 -65 121 -83 225 -85 l90 -3 -87 9 c-98 9 -154 31 -216
83 -59 50 -69 46 -12 -4z"/>
<path d="M3108 573 c-62 -52 -118 -74 -216 -83 l-87 -9 90 3 c104 2 151 20
225 85 57 50 47 54 -12 4z"/>
<path d="M2235 420 c10 -11 20 -20 23 -20 3 0 -3 9 -13 20 -10 11 -20 20 -23
20 -3 0 3 -9 13 -20z"/>
<path d="M3354 418 l-19 -23 23 19 c12 11 22 21 22 23 0 8 -8 2 -26 -19z"/>
<path d="M2778 393 c12 -2 32 -2 45 0 12 2 2 4 -23 4 -25 0 -35 -2 -22 -4z"/>
<path d="M2698 383 c6 -2 18 -2 25 0 6 3 1 5 -13 5 -14 0 -19 -2 -12 -5z"/>
<path d="M2878 383 c6 -2 18 -2 25 0 6 3 1 5 -13 5 -14 0 -19 -2 -12 -5z"/>
</g>
</svg>
